<?xml version="1.0" standalone="no"?>
<!DOCTYPE svg PUBLIC "-//W3C//DTD SVG 20010904//EN"
 "http://www.w3.org/TR/2001/REC-SVG-20010904/DTD/svg10.dtd">
<svg version="1.0" xmlns="http://www.w3.org/2000/svg"
 fill="#FFF" width="40" height="40" viewBox="0 0 512.000000 512.000000"
 preserveAspectRatio="xMidYMid meet">

<g transform="translate(0.000000,512.000000) scale(0.100000,-0.100000)"
fill="#000000" stroke="none">
<path d="M3540 5110 c-391 -43 -784 -196 -1139 -442 -162 -113 -370 -294 -481
-419 l-61 -68 43 -11 c379 -94 777 -293 1111 -554 l97 -76 48 102 c169 359
438 658 772 858 151 90 239 128 509 220 l224 77 -53 42 c-155 122 -375 215
-605 255 -112 20 -352 28 -465 16z"/>
<path d="M4585 4455 c-423 -147 -614 -254 -825 -465 -163 -163 -290 -358 -379
-584 l-32 -78 84 -92 c357 -392 607 -839 716 -1283 13 -51 27 -93 32 -93 15 0
253 243 333 340 315 381 506 786 582 1230 25 146 25 437 0 575 -19 107 -53
223 -93 320 -39 94 -116 225 -133 224 -8 0 -136 -43 -285 -94z"/>
<path d="M1215 3924 c-82 -9 -213 -36 -295 -61 -87 -26 -286 -118 -329 -151
l-24 -19 68 -204 c118 -355 176 -492 272 -642 169 -265 395 -469 670 -606 129
-64 240 -103 422 -145 202 -48 341 -96 496 -171 359 -175 652 -447 850 -790
80 -139 125 -245 201 -476 36 -109 70 -197 75 -194 5 3 29 34 53 68 251 352
319 819 192 1328 -214 858 -960 1659 -1816 1951 -106 36 -247 72 -365 93 -88
15 -389 28 -470 19z"/>
<path d="M269 3410 c-332 -455 -355 -1122 -60 -1780 271 -605 816 -1150 1416
-1417 486 -217 964 -267 1383 -147 79 23 302 125 344 157 16 13 11 34 -73 286
-93 283 -149 411 -243 556 -196 301 -505 544 -852 668 -40 14 -155 46 -256 71
-218 53 -341 96 -489 171 -392 197 -709 521 -900 920 -49 102 -209 536 -209
565 0 23 -20 6 -61 -50z"/>
</g>
</svg>
