<?xml version="1.0" standalone="no"?>
<!DOCTYPE svg PUBLIC "-//W3C//DTD SVG 20010904//EN"
 "http://www.w3.org/TR/2001/REC-SVG-20010904/DTD/svg10.dtd">
<svg version="1.0" xmlns="http://www.w3.org/2000/svg"
 width="512.000000pt" height="512.000000pt" viewBox="0 0 512.000000 512.000000"
 preserveAspectRatio="xMidYMid meet">

<g transform="translate(0.000000,512.000000) scale(0.100000,-0.100000)"
fill="#000000" stroke="none">
<path d="M3415 4863 c-66 -23 -136 -93 -158 -158 -34 -98 -17 -198 56 -340 49
-93 168 -219 259 -273 276 -164 541 -72 541 188 0 322 -424 677 -698 583z
m240 -197 c183 -90 334 -335 276 -445 -39 -71 -172 -52 -307 45 -119 85 -209
230 -209 337 0 53 3 61 29 84 27 23 36 25 85 20 33 -4 83 -20 126 -41z"/>
<path d="M615 4326 c-169 -39 -295 -122 -419 -277 -95 -119 -162 -271 -186
-419 -58 -371 157 -792 526 -1032 l62 -39 -9 -38 c-44 -194 -63 -428 -49 -603
35 -462 224 -849 581 -1193 279 -268 574 -419 949 -487 149 -26 423 -28 585
-4 299 46 563 132 880 286 367 179 815 487 1037 713 243 246 420 596 497 982
37 187 46 277 45 500 0 245 -13 348 -66 515 -55 172 -128 299 -236 412 -124
129 -269 200 -411 200 -173 0 -278 -88 -289 -241 -6 -88 14 -155 84 -286 70
-132 96 -229 97 -365 0 -129 -19 -216 -74 -326 -37 -76 -139 -214 -158 -214
-5 0 -37 37 -72 82 -216 280 -570 654 -879 929 -622 553 -1200 873 -1483 820
-87 -16 -128 -43 -202 -131 l-67 -80 -73 67 c-146 137 -357 232 -525 239 -50
2 -110 -2 -145 -10z m219 -171 c130 -34 246 -99 348 -195 l71 -66 -73 -107
-74 -106 -76 73 c-141 134 -267 171 -391 114 -76 -35 -111 -67 -149 -139 -115
-216 -64 -444 147 -658 l93 -95 -43 -123 -43 -124 -60 44 c-139 103 -251 232
-318 366 -65 127 -89 223 -90 351 -1 136 15 206 75 327 56 116 182 249 283
298 110 55 198 66 300 40z m1029 -109 c544 -183 1452 -950 2049 -1733 7 -9
-10 -22 -59 -46 -184 -92 -353 -130 -578 -130 -375 0 -574 85 -631 266 -12 38
-18 120 -24 312 -10 282 -21 368 -68 488 -67 172 -240 346 -447 449 -117 59
-320 108 -447 108 l-46 0 -16 48 c-9 26 -19 72 -23 103 -14 133 21 174 142
166 39 -3 105 -17 148 -31z m-370 -455 c270 -618 1101 -1545 1892 -2108 228
-163 473 -296 657 -358 l98 -33 -67 -50 c-365 -269 -821 -493 -1191 -586 -207
-53 -274 -60 -512 -60 -195 0 -239 3 -326 22 -283 61 -527 186 -751 382 -285
249 -479 571 -554 918 -30 141 -37 418 -15 577 65 466 277 952 629 1444 l60
84 22 -74 c12 -41 38 -112 58 -158z m-657 103 c22 -12 71 -55 108 -94 63 -67
66 -73 53 -93 -27 -42 -147 -265 -167 -311 -12 -25 -25 -46 -30 -46 -20 0
-133 139 -163 199 -28 59 -32 76 -32 151 0 76 3 91 30 139 22 41 40 59 70 72
45 20 72 17 131 -17z m3700 -56 c272 -133 431 -521 411 -1003 -18 -417 -126
-777 -324 -1072 -66 -98 -167 -215 -233 -270 l-55 -45 -80 4 c-98 6 -171 30
-340 112 -138 68 -183 95 -154 96 35 0 179 55 273 103 177 90 390 275 402 348
7 44 -25 86 -73 95 -29 6 -39 0 -126 -84 -191 -181 -397 -288 -625 -323 l-81
-12 -109 79 c-107 77 -393 306 -389 311 1 1 52 -3 112 -9 568 -54 1107 227
1265 661 91 249 75 499 -47 734 -20 40 -46 90 -57 111 -11 22 -22 63 -24 92
-5 60 10 80 76 101 50 17 101 8 178 -29z m-2632 -89 c179 -54 361 -186 449
-326 67 -106 97 -273 97 -536 l0 -141 -41 39 c-120 117 -363 423 -503 634 -79
119 -216 349 -216 361 0 11 144 -9 214 -31z"/>
<path d="M1918 2220 c-100 -17 -239 -75 -337 -142 -67 -46 -187 -164 -236
-233 -59 -83 -111 -189 -137 -282 -32 -113 -32 -273 0 -366 105 -303 427 -417
780 -276 317 126 562 470 562 788 0 154 -46 275 -140 372 -117 120 -299 171
-492 139z m220 -174 c8 -4 7 -16 -3 -40 -8 -19 -21 -74 -30 -122 -17 -98 -48
-160 -98 -197 -50 -38 -66 -44 -161 -60 -116 -20 -198 -61 -265 -132 -64 -67
-98 -140 -117 -246 -20 -114 -26 -121 -57 -73 -31 46 -57 140 -57 205 0 109
62 272 145 379 121 155 259 246 430 286 59 13 191 14 213 0z m221 -201 c42
-112 23 -265 -50 -405 -99 -191 -286 -345 -479 -395 -63 -16 -220 -19 -235 -3
-3 3 3 36 14 73 12 37 21 79 21 94 0 55 33 125 80 172 49 49 89 65 215 88 121
22 225 95 289 205 33 55 40 78 67 221 l11 59 23 -26 c13 -15 33 -52 44 -83z"/>
</g>
</svg>
